<svg width="98" height="98" viewBox="0 0 98 98" fill="none" xmlns="http://www.w3.org/2000/svg">
<g id="icon">
<g id="Group 119">
<path id="&#224;&#184;&#129;&#224;&#184;&#165;&#224;&#184;&#161; &#224;&#185;&#128;&#224;&#184;&#171;&#224;&#184;&#165;&#224;&#184;&#183;&#224;&#184;&#173;&#224;&#184;&#135;" d="M41.9 21C41.9 32.5428 32.5428 41.9 21 41.9C9.45725 41.9 0.1 32.5428 0.1 21C0.1 9.45725 9.45725 0.1 21 0.1C32.5428 0.1 41.9 9.45725 41.9 21Z" fill="#F7CF47" stroke="black" stroke-width="0.2"/>
<path id="&#224;&#184;&#129;&#224;&#184;&#165;&#224;&#184;&#161; &#224;&#184;&#148;&#224;&#184;&#179;" d="M97.9 21C97.9 32.5428 88.5428 41.9 77 41.9C65.4572 41.9 56.1 32.5428 56.1 21C56.1 9.45725 65.4572 0.1 77 0.1C88.5428 0.1 97.9 9.45725 97.9 21Z" fill="#403C3C" stroke="black" stroke-width="0.2"/>
<path id="&#224;&#184;&#129;&#224;&#184;&#165;&#224;&#184;&#161; &#224;&#185;&#128;&#224;&#184;&#151;&#224;&#184;&#178;" d="M41.9 77C41.9 88.5428 32.5428 97.9 21 97.9C9.45725 97.9 0.1 88.5428 0.1 77C0.1 65.4572 9.45725 56.1 21 56.1C32.5428 56.1 41.9 65.4572 41.9 77Z" fill="#D9D9D9" fill-opacity="0.84" stroke="black" stroke-width="0.2"/>
<path id="&#224;&#184;&#129;&#224;&#184;&#165;&#224;&#184;&#161; &#224;&#185;&#128;&#224;&#184;&#171;&#224;&#184;&#165;&#224;&#184;&#183;&#224;&#184;&#173;&#224;&#184;&#135;_2" d="M97.9 77C97.9 88.5428 88.5428 97.9 77 97.9C65.4572 97.9 56.1 88.5428 56.1 77C56.1 65.4572 65.4572 56.1 77 56.1C88.5428 56.1 97.9 65.4572 97.9 77Z" fill="#F7CF47" stroke="black" stroke-width="0.2"/>
</g>
</g>
</svg>
